# xmcd
#
# Track frame offsets:
#	150
#	22090
#	39658
#	59056
#	83408
#	97016
#	114726
#	131251
#	146119
#
# Disc length: 2136 seconds
#
# Revision: 0
# Processed by: cddbd v1.5.2PL0 Copyright (c) Steve Scherf et al.
# Submitted via: EasyCDDAExtractor 16.0.1.1
#
DISCID=7e085609
DTITLE=The Judds - Love Can Build a Bridge
DYEAR=1990
DGENRE=Country
TTITLE0=Born to Be Blue
TTITLE1=Calling in the Wind
TTITLE2=Rompin' Stompin' Blues
TTITLE3=Love Can Build a Bridge
TTITLE4=This Country's Rockin'
TTITLE5=One Hundred and Two
TTITLE6=In My Dreams
TTITLE7=Talk About Love
TTITLE8=Are The Roses Not Blooming
EXTD=
EXTT0=
EXTT1=
EXTT2=
EXTT3=
EXTT4=
EXTT5=
EXTT6=
EXTT7=
EXTT8=
PLAYORDER=
